<?xml version="1.0" standalone="no"?>
<!DOCTYPE svg PUBLIC "-//W3C//DTD SVG 20010904//EN"
 "http://www.w3.org/TR/2001/REC-SVG-20010904/DTD/svg10.dtd">
<svg version="1.0" xmlns="http://www.w3.org/2000/svg"
 width="800.000000pt" height="800.000000pt" viewBox="0 0 800.000000 800.000000"
 preserveAspectRatio="xMidYMid meet">

<g transform="translate(0.000000,800.000000) scale(0.100000,-0.100000)"
fill="#000000" stroke="none">
<path d="M0 5320 c0 -1474 3 -2680 6 -2680 3 0 20 11 38 26 17 14 89 72 161
130 72 58 142 118 156 133 14 15 62 56 105 91 43 36 147 132 229 214 l150 150
68 4 c67 4 70 3 105 -30 37 -35 111 -82 165 -106 22 -9 45 -9 100 -1 84 13
256 4 305 -16 42 -18 48 -35 23 -76 -12 -19 -21 -40 -21 -47 0 -7 -7 -20 -15
-28 -8 -9 -15 -24 -15 -36 0 -16 -5 -19 -27 -14 -27 6 -28 6 -30 -43 -1 -44
-6 -55 -38 -85 -20 -20 -46 -38 -56 -41 -11 -4 -27 -17 -35 -31 -12 -18 -22
-22 -40 -18 -27 7 -28 5 -15 -30 7 -17 6 -27 -3 -35 -7 -6 -23 -32 -35 -59
-14 -30 -35 -56 -54 -67 -18 -10 -41 -28 -53 -39 -11 -12 -29 -26 -40 -32 -16
-10 -17 -15 -6 -33 10 -18 10 -22 -4 -28 -9 -3 -24 -25 -35 -49 -10 -24 -23
-44 -28 -44 -10 0 -51 -66 -56 -92 -2 -9 -8 -26 -14 -37 -6 -11 -11 -29 -11
-40 0 -12 -10 -29 -21 -39 -69 -55 -87 -77 -119 -139 -19 -37 -43 -74 -52 -81
-10 -7 -18 -19 -18 -25 0 -7 -9 -20 -20 -30 -11 -9 -20 -29 -20 -45 0 -16 -8
-46 -19 -67 -16 -33 -20 -36 -28 -21 -12 21 -92 41 -106 27 -18 -18 0 -42 28
-35 29 7 35 -15 9 -37 -11 -9 -14 -22 -9 -46 4 -23 2 -33 -7 -33 -30 0 -118
-73 -174 -146 -17 -21 -40 -36 -72 -44 -26 -7 -52 -17 -58 -22 -7 -5 -26 0
-49 13 -31 18 -38 20 -46 8 -5 -8 -9 -20 -9 -26 0 -7 -13 -25 -30 -39 -16 -15
-32 -35 -35 -45 -4 -11 -16 -21 -28 -24 -12 -3 -27 -17 -34 -31 -15 -33 1 -63
39 -71 15 -3 29 -12 32 -20 5 -13 0 -14 -26 -9 -18 4 -50 10 -70 13 l-38 5 0
-611 0 -611 1028 2 c570 0 967 4 892 8 -191 11 -234 36 -206 122 8 24 20 77
26 118 11 69 10 80 -10 135 -57 154 -63 175 -56 182 4 4 15 2 24 -5 88 -64
137 -72 235 -42 38 12 76 30 85 41 9 10 23 19 30 19 8 0 42 -28 76 -62 49 -51
68 -80 95 -148 35 -86 72 -148 164 -273 27 -37 47 -70 44 -73 -3 -4 -61 -8
-129 -11 -68 -3 -125 -7 -127 -9 -2 -2 1308 -4 2912 -4 l2917 0 0 1905 0 1905
-20 0 c-12 0 -24 9 -29 23 -12 30 -74 77 -103 77 -21 1 -19 4 20 38 33 29 42
44 42 69 0 23 -6 36 -21 44 -26 13 -39 2 -43 -36 -2 -17 -16 -40 -35 -57 -30
-27 -61 -37 -61 -20 0 5 -16 27 -35 49 -31 36 -35 48 -35 96 0 68 -17 89 -87
112 -58 18 -76 31 -180 123 l-73 64 0 61 c0 34 -7 103 -15 152 -20 124 -19
152 7 173 12 9 37 31 57 49 l36 31 -30 12 c-67 27 -79 37 -104 78 -14 23 -34
45 -43 48 -10 3 -18 15 -18 28 0 17 17 33 65 64 36 23 65 47 65 54 0 33 -129
180 -169 193 -15 5 -17 12 -11 46 10 55 -3 58 -80 19 -45 -22 -70 -29 -90 -25
-27 6 -28 4 -34 -42 -4 -26 -12 -60 -17 -74 -12 -30 -113 -116 -174 -148 -37
-19 -46 -20 -97 -9 -80 17 -101 6 -118 -66 -7 -31 -21 -68 -32 -83 -10 -16
-27 -42 -38 -59 -26 -41 -89 -84 -120 -83 -14 0 -55 2 -91 5 l-66 6 19 71 c10
40 27 83 37 97 22 31 61 37 95 14 25 -16 26 -16 26 6 0 27 -90 120 -116 120
-13 0 -27 -17 -41 -48 -33 -69 -104 -162 -152 -199 -64 -49 -153 -68 -206 -44
-90 42 -139 60 -174 66 -51 8 -91 39 -91 70 l0 24 124 -1 c68 0 128 2 133 5 6
4 23 33 39 64 37 74 125 164 189 192 28 13 92 36 144 53 57 19 121 48 160 74
109 74 223 104 298 80 17 -5 31 1 61 28 22 20 66 48 98 63 76 35 207 40 264 9
85 -46 178 -163 271 -341 48 -92 146 -259 289 -493 105 -170 165 -303 195
-427 l7 -30 -24 23 c-19 17 -31 21 -57 16 -41 -9 -51 -29 -51 -108 0 -77 6
-96 30 -96 10 0 22 -9 25 -20 8 -24 27 -25 61 -3 30 19 49 60 35 77 -10 13
-25 96 -17 96 7 0 88 -167 97 -200 4 -14 7 660 8 1497 1 1518 1 1521 -19 1516
-11 -3 -26 -1 -33 4 -7 5 -122 9 -272 8 l-260 -2 -71 -30 c-60 -26 -86 -31
-174 -34 -123 -5 -136 4 -104 67 28 55 120 97 375 173 235 70 278 79 442 88
l117 6 0 324 0 323 -2248 0 c-1236 0 -2252 -4 -2257 -8 -14 -12 -221 -35 -235
-27 -7 4 -64 7 -129 6 -84 0 -125 4 -145 14 -32 17 -158 20 -220 5 -61 -14
-171 -15 -168 -1 1 7 -20 11 -65 11 -51 -1 -64 -3 -50 -11 24 -14 22 -32 -3
-19 -11 6 -31 8 -45 4 -16 -4 -34 0 -50 10 -27 18 -130 23 -120 6 6 -10 -9
-15 -30 -10 -31 7 -59 0 -79 -19 l-24 -22 -41 20 c-23 12 -41 26 -41 31 0 7
-363 10 -1025 10 l-1025 0 0 -2680z m3780 1188 c93 2 95 2 125 -32 19 -22 43
-36 65 -40 84 -14 128 -27 174 -51 41 -21 63 -25 132 -25 64 0 90 -4 116 -20
18 -10 54 -21 79 -23 42 -4 119 -42 133 -65 3 -6 22 -13 41 -16 20 -4 57 -16
83 -27 35 -15 52 -18 69 -10 14 7 24 7 28 1 4 -6 -1 -13 -9 -16 -27 -10 -18
-27 12 -21 15 3 59 10 97 17 54 9 75 17 91 37 l21 25 63 -59 c111 -101 244
-287 272 -376 25 -84 38 -139 33 -147 -3 -5 -36 8 -73 29 -37 21 -97 50 -135
66 -51 21 -76 39 -103 74 -54 67 -72 81 -110 81 -28 0 -34 -4 -34 -22 -1 -23
-1 -23 -19 2 -11 14 -19 28 -20 33 0 4 -8 20 -17 36 -13 22 -31 32 -75 45 -76
21 -73 21 -132 -15 l-50 -30 -31 30 c-33 32 -46 32 -46 1 0 -9 -12 -22 -26
-29 -21 -9 -25 -17 -21 -36 4 -25 -6 -34 -18 -15 -3 6 -17 10 -31 10 -18 0
-24 -5 -24 -22 0 -16 -3 -19 -11 -11 -6 6 -26 9 -44 6 -29 -5 -36 0 -81 52
-27 32 -68 77 -91 100 -39 40 -44 43 -95 42 -43 -1 -60 4 -92 26 -22 15 -51
30 -65 34 -14 3 -34 17 -44 30 -10 13 -26 23 -36 23 -25 0 -81 -29 -81 -42 0
-6 -8 -7 -17 -3 -27 10 -113 26 -153 28 -42 2 -47 25 -11 43 47 24 51 64 8 64
-12 0 -31 7 -41 15 -11 8 -26 15 -33 15 -20 0 -16 -35 7 -55 15 -14 17 -21 9
-31 -9 -11 -17 -6 -40 26 -45 62 -63 67 -103 26 -26 -25 -45 -35 -78 -38 -24
-3 -45 -4 -47 -2 -7 6 81 154 92 154 7 0 26 7 42 16 76 42 106 54 133 54 15 0
37 7 48 15 10 8 27 15 37 15 9 0 17 5 17 11 0 8 12 9 38 4 20 -4 53 -7 72 -7z
m-1115 -962 c91 -29 122 -55 218 -187 30 -42 77 -98 103 -125 26 -27 82 -89
124 -139 43 -49 103 -108 133 -130 59 -43 92 -87 83 -111 -3 -7 -12 -14 -20
-14 -14 0 -145 77 -156 91 -3 4 -32 28 -65 54 l-60 46 -8 -73 c-9 -82 -3 -374
8 -400 4 -11 3 -18 -4 -18 -7 0 -14 8 -17 18 -3 9 -17 42 -30 73 -13 31 -24
68 -24 82 0 14 -5 36 -10 49 -9 18 -5 42 20 117 16 51 33 110 36 130 6 35 3
40 -44 80 -64 53 -112 124 -112 166 0 18 -7 38 -15 45 -13 11 -20 9 -44 -14
-30 -29 -40 -31 -225 -56 -94 -12 -99 -21 -49 -73 48 -49 83 -111 83 -147 0
-36 -27 -70 -56 -70 -30 0 -30 -13 1 -85 36 -81 62 -183 81 -315 20 -147 25
-154 115 -145 66 7 68 6 85 -21 14 -20 15 -29 6 -32 -6 -2 -12 -8 -12 -14 0
-18 -65 -117 -76 -118 -7 0 -28 18 -48 40 -20 22 -40 40 -45 40 -23 0 -27
-298 -4 -321 6 -6 16 -2 29 12 16 18 19 35 18 102 -1 79 -1 80 17 56 30 -39
42 -113 36 -218 -6 -114 -20 -154 -61 -175 -17 -9 -43 -26 -58 -38 -15 -12
-30 -20 -32 -17 -2 2 0 27 4 54 17 98 12 149 -15 175 -29 27 -41 21 -80 -46
-14 -24 -27 -44 -28 -44 -1 0 -23 -7 -49 -14 l-47 -15 -45 35 c-43 32 -46 33
-55 15 -6 -10 -24 -24 -40 -29 -23 -8 -32 -20 -41 -49 -12 -44 -30 -67 -82
-107 -29 -21 -38 -36 -38 -57 0 -16 -4 -29 -9 -29 -4 0 -32 28 -62 62 -97 113
-226 236 -268 257 -37 19 -40 23 -29 41 10 16 10 24 1 40 -22 35 -4 79 59 144
46 47 70 63 106 72 78 20 102 32 113 57 9 20 7 31 -15 65 -30 48 -31 52 -11
52 8 0 15 -6 15 -13 0 -7 9 -17 19 -22 11 -6 51 -30 90 -55 l70 -45 1 -60 c0
-34 5 -66 10 -71 14 -14 -9 -104 -28 -111 -15 -6 3 -33 22 -33 6 0 24 -7 40
-15 27 -15 32 -14 100 20 39 19 77 35 84 35 7 0 31 -13 54 -30 38 -28 78 -40
78 -23 0 13 -53 63 -67 63 -7 0 -13 5 -13 11 0 6 7 9 15 5 10 -4 17 3 21 22 4
15 11 35 16 46 6 10 10 62 10 114 -1 108 -2 109 -93 156 -34 17 -50 21 -58 13
-7 -7 -18 -7 -36 1 -14 7 -43 12 -65 12 -21 0 -42 5 -45 10 -3 6 -19 10 -35
10 -16 0 -58 12 -92 26 l-63 25 1 229 c2 194 0 230 -13 234 -8 3 -19 3 -25 0
-11 -7 -68 15 -68 26 0 4 9 10 20 13 20 5 29 37 10 37 -25 0 -6 21 34 39 73
32 86 82 34 126 -24 20 -37 25 -57 19 -47 -13 -115 -24 -215 -35 -83 -9 -177
-33 -258 -64 -33 -13 -18 13 41 70 76 74 125 103 421 251 313 156 377 176 555
169 72 -2 122 -10 180 -29z m-1835 -109 c0 -23 4 -59 9 -80 8 -35 -2 -107 -15
-107 -3 0 -15 7 -28 15 -22 14 -23 21 -20 97 4 80 24 136 44 123 6 -4 10 -25
10 -48z m4000 -143 c0 -9 15 -34 33 -57 19 -23 37 -50 40 -59 4 -11 17 -18 31
-18 15 0 30 -8 36 -20 9 -16 8 -18 -5 -14 -8 4 -28 1 -44 -6 -53 -21 -150 32
-151 83 0 24 -15 21 -33 -5 l-15 -23 -23 21 c-13 12 -34 25 -46 29 -13 3 -23
11 -23 16 0 5 -15 9 -33 9 -20 0 -41 8 -50 18 -16 17 -14 18 36 15 103 -6 152
-2 167 13 20 20 80 19 80 -2z m455 -75 c4 -5 -3 -9 -14 -9 -26 0 -35 15 -11
17 11 1 22 -2 25 -8z m-60 -19 c-3 -5 -15 -10 -26 -10 -10 0 -19 5 -19 10 0 6
12 10 26 10 14 0 23 -4 19 -10z m-738 -378 c51 -15 93 -30 93 -34 0 -8 -428
-4 -437 5 -3 4 14 7 38 7 32 0 40 3 29 10 -8 5 -34 10 -57 10 -23 0 -44 4 -47
9 -4 5 42 12 102 16 59 3 112 8 117 10 16 6 63 -3 162 -33z m1173 -3 c0 -5
-15 -9 -32 -9 -18 0 -60 -7 -93 -15 -70 -17 -105 -19 -105 -6 0 14 68 34 140
41 69 6 90 4 90 -11z m-607 -504 c4 -8 2 -17 -3 -20 -6 -4 -10 -1 -10 5 0 6
-4 8 -10 5 -5 -3 -10 1 -10 9 0 20 26 21 33 1z m2 -64 c3 -8 1 -19 -5 -25 -7
-7 -10 -5 -10 7 0 9 -4 17 -10 17 -5 0 -10 -8 -10 -17 0 -12 -3 -14 -11 -6 -5
5 -7 22 -4 36 6 23 9 24 26 14 10 -6 21 -18 24 -26z m-52 -93 c7 0 17 -2 22
-3 6 -2 15 -3 22 -4 16 -1 5 -31 -11 -31 -22 0 -69 57 -60 72 7 10 10 7 12 -9
2 -13 9 -24 15 -25z m1990 -40 c83 -14 120 -49 131 -122 6 -37 12 -49 32 -56
47 -18 49 -90 3 -90 -11 0 -22 -6 -25 -14 -6 -16 -49 -34 -108 -46 -31 -6 -42
-4 -57 11 -11 11 -27 19 -36 20 -10 0 -38 14 -63 29 -25 16 -70 41 -100 56
-76 38 -188 105 -201 121 -9 10 -3 24 26 59 l38 46 51 -7 c66 -9 98 -7 111 6
11 11 81 7 198 -13z m-1963 -45 c0 -7 16 -21 35 -30 22 -10 38 -28 45 -47 10
-28 12 -29 21 -13 8 14 7 23 -6 36 -13 15 -13 19 -2 24 18 7 42 -21 43 -50 0
-17 -7 -23 -33 -28 -18 -3 -33 -10 -33 -15 0 -23 -60 12 -77 45 -6 11 -13 36
-17 56 -5 28 -3 36 9 36 8 0 15 -6 15 -14z m-3580 -45 c0 -12 -83 -104 -198
-221 -26 -27 -65 -59 -87 -71 -43 -25 -142 -52 -152 -42 -14 13 28 67 145 188
l124 127 56 7 c32 3 64 10 72 15 22 12 40 11 40 -3z m4189 -1130 c68 -20 80
-21 170 -10 119 15 224 15 276 1 22 -6 79 -38 128 -70 l87 -58 115 -10 c126
-11 154 -21 227 -85 70 -60 198 -99 198 -61 0 8 3 15 7 15 10 0 75 -79 94
-114 14 -27 22 -31 59 -32 23 -1 47 -7 53 -13 6 -6 40 -11 76 -11 59 0 68 -3
96 -30 l31 -30 66 14 c37 8 71 17 77 20 6 4 26 -10 44 -31 32 -34 39 -37 100
-41 44 -3 83 1 119 13 79 24 96 14 172 -102 84 -131 94 -159 71 -204 -10 -18
-43 -64 -74 -102 -41 -50 -60 -66 -73 -61 -18 5 -98 -33 -98 -47 0 -4 -24 -23
-52 -42 -29 -19 -64 -47 -77 -61 -14 -14 -30 -26 -37 -26 -7 0 -17 -8 -23 -17
-9 -17 -11 -16 -33 5 -31 28 -34 28 -41 -7 -6 -27 -52 -91 -66 -91 -4 0 -16 7
-27 15 -18 15 -18 15 11 13 25 -3 30 1 30 19 0 12 8 30 18 41 9 10 17 24 17
30 0 24 -19 20 -54 -13 -21 -19 -47 -35 -58 -35 -14 0 -18 -5 -14 -15 6 -17
-19 -21 -29 -4 -4 6 -14 8 -22 5 -8 -3 -34 -1 -59 4 -38 9 -48 8 -62 -6 -13
-14 -17 -14 -20 -3 -3 8 -12 22 -20 32 -13 15 -14 23 -4 51 15 41 15 43 -2 49
-18 7 -70 -73 -86 -132 -9 -34 -15 -41 -35 -41 -26 0 -41 15 -25 25 5 3 9 23
9 43 -1 20 2 49 6 65 6 20 4 27 -8 27 -8 0 -20 -7 -28 -16 -9 -11 -22 -14 -41
-10 -24 5 -28 2 -28 -16 0 -14 -4 -18 -9 -12 -6 5 -5 30 1 62 10 49 9 55 -11
75 -17 17 -25 19 -39 11 -13 -9 -17 -24 -15 -72 2 -74 26 -126 55 -119 19 5
19 2 13 -54 -4 -32 -4 -82 0 -110 l7 -51 29 28 c16 15 29 38 29 50 0 22 22 48
33 38 9 -9 -14 -55 -51 -102 -34 -43 -35 -44 -29 -120 4 -43 18 -169 31 -282
14 -113 26 -215 26 -227 0 -33 -26 -28 -39 7 -10 30 -31 41 -31 16 0 -19 -88
-53 -191 -73 -75 -14 -92 -15 -114 -3 -30 16 -44 6 -27 -20 7 -11 10 -20 7
-20 -13 0 -61 29 -78 48 -11 12 -26 18 -42 14 -18 -3 -25 0 -25 12 0 9 -6 16
-13 16 -18 0 -80 77 -144 178 -63 101 -215 398 -211 415 2 14 -38 94 -60 120
-22 25 -40 21 -44 -10 -3 -26 -5 -24 -26 22 -12 28 -26 57 -31 65 -6 8 -23 38
-39 65 -31 53 -82 107 -82 87 0 -7 -13 -12 -29 -12 -19 0 -35 -8 -45 -21 -8
-11 -23 -27 -35 -35 -19 -14 -23 -12 -48 16 -24 26 -33 30 -60 24 -33 -7 -39
-20 -48 -116 -3 -40 -32 -108 -44 -108 -12 0 -51 81 -51 106 0 10 -7 32 -15
48 -8 15 -15 36 -15 46 0 9 -9 25 -20 35 -18 16 -23 17 -47 4 -14 -8 -28 -22
-31 -31 -2 -10 -8 -18 -13 -18 -20 0 -9 -94 29 -243 9 -32 8 -38 -6 -35 -20 4
-56 68 -82 148 -12 36 -26 74 -31 85 -5 11 -13 32 -19 48 -5 15 -15 27 -22 27
-7 0 -64 -50 -127 -111 -84 -82 -116 -107 -122 -97 -5 7 -9 18 -9 23 0 6 -11
32 -25 59 -14 27 -25 60 -25 73 0 14 -5 34 -11 45 -9 16 -5 43 16 124 32 121
27 156 -21 164 -25 4 -29 10 -32 43 -3 37 1 42 120 158 68 66 139 128 158 139
47 24 135 119 156 167 31 72 48 98 104 164 31 36 77 95 103 131 26 37 53 69
60 72 35 14 177 5 246 -16z m-3887 -420 c-7 -7 -12 -8 -12 -2 0 6 3 14 7 17 3
4 9 5 12 2 2 -3 -1 -11 -7 -17z m-87 -328 c-40 -7 -43 -32 -8 -78 16 -20 39
-51 51 -69 l22 -32 -32 10 c-18 5 -44 22 -58 38 -14 16 -37 32 -52 35 -25 6
-28 3 -28 -18 0 -13 -16 -50 -35 -82 -19 -32 -35 -64 -35 -71 0 -7 -4 -13 -10
-13 -5 0 -10 -9 -10 -20 0 -14 7 -20 24 -20 20 0 25 -8 41 -67 10 -38 26 -79
35 -93 9 -14 38 -63 65 -110 26 -47 55 -95 63 -108 14 -22 14 -23 -9 -13 -13
5 -53 14 -87 20 -55 9 -72 8 -128 -11 l-64 -21 -55 43 c-42 32 -55 49 -55 69
0 33 96 243 148 325 41 63 95 173 107 214 4 13 20 53 37 88 l30 64 36 -38 37
-37 -30 -5z m4235 -681 c0 -11 -4 -17 -10 -14 -5 3 -10 13 -10 21 0 8 5 14 10
14 6 0 10 -9 10 -21z m40 -77 c0 -30 -15 -20 -28 18 -10 28 -10 29 9 17 10 -6
19 -22 19 -35z m-1114 -964 c-3 -24 -8 -81 -11 -128 -3 -47 -11 -103 -17 -125
-13 -47 -15 -112 -4 -137 8 -17 -4 -18 -159 -18 -92 0 -165 3 -163 8 2 4 25
48 51 98 51 95 81 131 166 203 29 23 64 62 79 85 46 70 67 75 58 14z m264
-394 c0 -2 -9 -4 -20 -4 -11 0 -20 4 -20 9 0 5 9 7 20 4 11 -3 20 -7 20 -9z"/>
<path d="M5560 1866 c0 -20 40 -86 51 -86 14 0 11 7 -17 56 -28 47 -34 53 -34
30z"/>
<path d="M6715 5334 c-27 -29 -76 -126 -68 -134 3 -3 12 6 22 19 9 13 30 38
47 55 30 31 51 86 32 86 -5 0 -20 -12 -33 -26z"/>
</g>
</svg>
